HIERARCHY
ROOT Hips
{
	OFFSET 0.000000 0.000000 0.000000
	CHANNELS 6 Xposition Yposition Zposition Yrotation Xrotation Zrotation 
	JOINT LeftHip
	{
		OFFSET 0.085397 -0.001024 0.000114
		CHANNELS 3 Yrotation Xrotation Zrotation
		JOINT LeftKnee
		{
			OFFSET 0.000000 -0.410205 0.000000
			CHANNELS 3 Yrotation Xrotation Zrotation
			JOINT LeftAnkle
			{
				OFFSET 0.000000 -0.492465 0.000077
				CHANNELS 3 Yrotation Xrotation Zrotation
				JOINT LeftToe
				{
					OFFSET 0.000000 -0.086216 0.191193
					CHANNELS 3 Yrotation Xrotation Zrotation
					End Site
					{
						OFFSET 0.000000 0.000000 0.000000
					}
				}
			}
		}
	}
	JOINT RightHip
	{
		OFFSET -0.085397 -0.000998 0.000111
		CHANNELS 3 Yrotation Xrotation Zrotation
		JOINT RightKnee
		{
			OFFSET 0.000000 -0.410205 0.000000
			CHANNELS 3 Yrotation Xrotation Zrotation
			JOINT RightAnkle
			{
				OFFSET 0.000000 -0.492465 0.000077
				CHANNELS 3 Yrotation Xrotation Zrotation
				JOINT RightToe
				{
					OFFSET 0.000000 -0.086216 0.191193
					CHANNELS 3 Yrotation Xrotation Zrotation
					End Site
					{
						OFFSET 0.000000 0.000000 0.000000
					}
				}
			}
		}
	}
	JOINT Chest
	{
		OFFSET 0.000000 0.105887 -0.011765
		CHANNELS 3 Yrotation Xrotation Zrotation
		JOINT Chest3
		{
			OFFSET 0.000000 0.233831 -0.010941
			CHANNELS 3 Yrotation Xrotation Zrotation
			JOINT Chest4
			{
				OFFSET 0.000000 0.111697 0.000413
				CHANNELS 3 Yrotation Xrotation Zrotation
				JOINT Neck
				{
					OFFSET 0.000000 0.151984 0.000000
					CHANNELS 3 Yrotation Xrotation Zrotation
					JOINT Head
					{
						OFFSET 0.000000 0.085950 0.000546
						CHANNELS 3 Yrotation Xrotation Zrotation
						End Site
						{
							OFFSET 0.000000 0.000000 0.000000
						}
					}
				}
				JOINT LeftCollar
				{
					OFFSET 0.029156 0.084949 0.000000
					CHANNELS 3 Yrotation Xrotation Zrotation
					JOINT LeftShoulder
					{
						OFFSET 0.131330 0.000000 0.000000
						CHANNELS 3 Yrotation Xrotation Zrotation
						JOINT LeftElbow
						{
							OFFSET 0.323986 0.000000 0.000000
							CHANNELS 3 Yrotation Xrotation Zrotation
							JOINT LeftWrist
							{
								OFFSET 0.253224 0.000000 -0.000037
								CHANNELS 3 Yrotation Xrotation Zrotation
								End Site
								{
									OFFSET 0.000000 0.000000 0.000000
								}
							}
						}
					}
				}
				JOINT RightCollar
				{
					OFFSET -0.029156 0.084949 0.000000
					CHANNELS 3 Yrotation Xrotation Zrotation
					JOINT RightShoulder
					{
						OFFSET -0.131330 0.000000 0.000000
						CHANNELS 3 Yrotation Xrotation Zrotation
						JOINT RightElbow
						{
							OFFSET -0.323986 0.000000 0.000000
							CHANNELS 3 Yrotation Xrotation Zrotation
							JOINT RightWrist
							{
								OFFSET -0.253224 0.000000 -0.000037
								CHANNELS 3 Yrotation Xrotation Zrotation
								End Site
								{
									OFFSET 0.000000 0.000000 0.000000
								}
							}
						}
					}
				}
			}
		}
	}
}
MOTION
Frames: 5
Frame Time: 0.016667
0.000000 0.000000 0.000000 -146.203208 12.294743 3.059782 3.995129 -24.715309 2.438151 -1.622283 37.296614 -2.284423 2.272167 -3.992501 -11.413390 -0.565726 -16.062814 5.469493 -6.766217 -23.487575 -0.909019 -3.162348 18.048636 -1.135164 -16.767951 -4.976790 2.791327 0.013964 -1.936866 -0.826091 3.400719 -0.717257 5.459770 2.530496 -6.432843 4.885871 1.146477 5.628076 1.940995 -9.184715 21.649718 -1.767910 -16.129211 4.412326 -0.640247 10.149990 -5.437339 -22.112440 -2.398793 9.321590 -68.951969 -59.213578 -37.228594 -52.958992 11.669220 17.616193 8.616513 6.148778 2.342838 -12.899863 -8.465651 -37.733609 77.519887 55.763938 -10.009403 11.640312 15.023549 10.909171 -10.609349 
0.000000 0.000000 0.000000 -146.449235 12.047731 2.782835 3.704869 -26.204424 3.161032 -2.112475 40.216294 -2.581804 2.417591 -3.092426 -11.810938 -0.489987 -16.421013 5.332381 -6.442657 -22.922347 -0.705911 -3.442757 18.028104 -1.058017 -16.668641 -5.288758 2.826446 0.015704 -1.922934 -0.935746 3.239782 -0.862755 5.448506 2.388990 -6.563090 4.877285 1.094027 5.577889 1.932647 -9.118535 21.555604 -1.821391 -15.998174 4.226811 -0.744370 10.341504 -5.751573 -22.375329 -1.900786 9.693198 -68.544326 -59.459677 -37.185896 -52.848837 11.648370 17.584150 8.488550 5.454990 2.654921 -13.268678 -9.481378 -36.283109 79.000576 60.033866 -8.790955 11.544320 15.263824 10.817654 -11.771125 
0.000000 0.000000 0.000000 -146.884795 11.829950 2.539673 3.148556 -27.497133 3.834392 -2.382816 42.742264 -2.779186 2.494525 -2.251975 -11.973586 -0.370861 -16.341567 4.998246 -6.081173 -22.440510 -0.561232 -3.731253 18.045312 -1.005887 -16.398478 -5.558390 2.851652 0.017163 -1.932309 -1.017706 3.071727 -1.017552 5.401933 2.244347 -6.701941 4.837054 1.039207 5.524360 1.912176 -8.987729 21.469738 -1.875441 -15.749336 4.053016 -0.868392 10.567675 -6.082187 -22.712905 -1.311554 10.097857 -68.080054 -59.761986 -37.161780 -52.664903 11.629148 17.566412 8.388930 4.781509 2.980414 -13.744579 -10.379631 -34.948178 80.526431 64.168439 -7.276045 11.364913 15.355782 10.795067 -13.094751 
0.000000 0.000000 0.000000 -147.504853 11.627381 2.328950 2.791553 -28.401986 4.474773 -2.479949 44.378200 -2.891062 2.361994 -1.680793 -11.996594 -0.269789 -16.001130 4.639667 -5.905015 -21.931027 -0.385140 -3.737046 17.949129 -0.958339 -16.034616 -5.749853 2.860628 0.018322 -1.947163 -1.078130 2.938598 -1.165742 5.323928 2.133467 -6.835054 4.768550 0.995885 5.473220 1.882304 -8.829857 21.392101 -1.923532 -15.452480 3.893298 -0.990300 10.693656 -6.278754 -22.996778 -0.694698 10.360719 -67.659288 -60.040924 -37.140301 -52.451470 11.616387 17.534382 8.320315 4.125652 3.307672 -14.207273 -11.371489 -33.729808 81.982099 68.232960 -5.860206 11.322144 15.396220 10.760455 -14.516058 
0.000000 0.000000 0.000000 -148.361830 11.433773 2.162341 2.892263 -28.839442 5.067775 -2.263146 44.939419 -2.818988 1.761938 -1.542035 -11.910194 -0.197569 -15.327260 4.391150 -6.081903 -21.344749 -0.128381 -3.244501 17.667122 -0.913640 -15.571777 -5.837813 2.847645 0.019116 -1.962345 -1.116142 2.877855 -1.295718 5.203661 2.090608 -6.952041 4.662037 0.976464 5.428643 1.840770 -8.653141 21.311281 -1.958589 -15.125473 3.728006 -1.094074 10.648324 -6.252896 -23.187169 -0.044546 10.386871 -67.321581 -60.262828 -37.121144 -52.231417 11.613436 17.468889 8.295559 3.457876 3.670247 -14.624210 -12.618706 -32.656925 83.376163 72.274004 -4.766934 11.559569 15.412844 10.705818 -16.072212 
